<?xml version="1.0" encoding="UTF-8" standalone="no"?>
<!-- Created with Inkscape (http://www.inkscape.org/) -->

<svg
   xmlns:dc="http://purl.org/dc/elements/1.1/"
   xmlns:cc="http://creativecommons.org/ns#"
   xmlns:rdf="http://www.w3.org/1999/02/22-rdf-syntax-ns#"
   xmlns:svg="http://www.w3.org/2000/svg"
   xmlns="http://www.w3.org/2000/svg"
   xmlns:sodipodi="http://sodipodi.sourceforge.net/DTD/sodipodi-0.dtd"
   xmlns:inkscape="http://www.inkscape.org/namespaces/inkscape"
   width="480mm"
   height="480mm"
   viewBox="0 0 480 480"
   version="1.1"
   id="svg8"
   inkscape:version="0.92.5 (2060ec1f9f, 2020-04-08)"
   sodipodi:docname="logo_santabarbara (copia).svg">
  <defs
     id="defs2">
    <linearGradient
       id="linearGradient8135">
      <stop
         id="stop8137"
         offset="0"
         style="stop-color:#5d070b;stop-opacity:1;" />
      <stop
         style="stop-color:#ed1c24;stop-opacity:1;"
         offset="0.5"
         id="stop8139" />
      <stop
         id="stop8141"
         offset="1"
         style="stop-color:#5d070a;stop-opacity:1;" />
    </linearGradient>
    <clipPath
       clipPathUnits="userSpaceOnUse"
       id="clipPath4728">
      <path
         style="fill:none;stroke:#000000;stroke-width:0.26458332px;stroke-linecap:butt;stroke-linejoin:miter;stroke-opacity:1"
         d="m 169.39807,12.910981 -3.28954,156.088339 c 0,0 4.55274,22.08972 28.39942,23.2455 23.84669,1.15575 19.24376,0.43915 19.24376,0.43915 l 25.49535,9.02473 48.7634,-6.12564 10.61122,-7.39478 3.67329,-2.90576 5.98654,-5.81959 2.82104,-10.8408 -0.91268,-23.47193 v -5.53791 l 0.49342,-68.148178 0.21775,-60.174463 3.94944,-5.6420462 2.30222,-5.6206258 53.94391,-20.00922 -19.25045,-60.693459 -113.8288,-13.002157 -142.481301,8.488521 23.051801,71.734585 35.1419,6.448052 9.58268,9.6647555 3.12134,5.172419 z"
         id="path4730"
         inkscape:connector-curvature="0"
         sodipodi:nodetypes="ccccccccccccccccccccccccc" />
    </clipPath>
    <ellipse
       style="opacity:1;fill:none;fill-opacity:1;stroke:#00ffea;stroke-width:2;stroke-linecap:round;stroke-linejoin:round;stroke-miterlimit:4;stroke-dasharray:none;stroke-dashoffset:0;stroke-opacity:1;paint-order:fill markers stroke"
       id="path856-43"
       cx="172.89175"
       cy="-156.41026"
       rx="196.34834"
       ry="190.431"
       transform="rotate(-135.04002)" />
    <path
       style="fill:none;stroke:none;stroke-width:0.96499997;stroke-miterlimit:4;stroke-dasharray:none;stroke-opacity:1"
       d="m -398.66951,150.37243 a 231.71722,231.71722 0 0 0 327.674097,3.94574 231.71722,231.71722 0 0 0 3.94502,-327.67411 231.71722,231.71722 0 0 0 -327.673737,-3.94536 231.71722,231.71722 0 0 0 -3.94538,327.67373 z m 20.72463,-27.2662 A 197.9187,197.9187 0 0 1 -430.34448,-16.169256 197.9187,197.9187 0 0 1 -227.43378,-208.9669 197.9187,197.9187 0 0 1 -34.636123,-6.0562193 197.9187,197.9187 0 0 1 -237.54683,186.74142 197.9187,197.9187 0 0 1 -377.94488,123.10623 Z"
       id="Zone5-5-1-0"
       inkscape:connector-curvature="0" />
    <path
       style="fill:none;stroke:none;stroke-width:0.96499997;stroke-miterlimit:4;stroke-dasharray:none;stroke-opacity:1"
       d="m -398.66951,150.37243 a 231.71722,231.71722 0 0 0 327.674097,3.94574 231.71722,231.71722 0 0 0 3.94502,-327.67411 231.71722,231.71722 0 0 0 -327.673737,-3.94536 231.71722,231.71722 0 0 0 -3.94538,327.67373 z m 20.72463,-27.2662 A 197.9187,197.9187 0 0 1 -430.34448,-16.169256 197.9187,197.9187 0 0 1 -227.43378,-208.9669 197.9187,197.9187 0 0 1 -34.636123,-6.0562193 197.9187,197.9187 0 0 1 -237.54683,186.74142 197.9187,197.9187 0 0 1 -377.94488,123.10623 Z"
       id="Zone5-5-1-9"
       inkscape:connector-curvature="0" />
    <path
       style="fill:none;stroke:none;stroke-width:0.96499997;stroke-miterlimit:4;stroke-dasharray:none;stroke-opacity:1"
       d="m -398.66951,150.37243 a 231.71722,231.71722 0 0 0 327.674097,3.94574 231.71722,231.71722 0 0 0 3.94502,-327.67411 231.71722,231.71722 0 0 0 -327.673737,-3.94536 231.71722,231.71722 0 0 0 -3.94538,327.67373 z m 20.72463,-27.2662 A 197.9187,197.9187 0 0 1 -430.34448,-16.169256 197.9187,197.9187 0 0 1 -227.43378,-208.9669 197.9187,197.9187 0 0 1 -34.636123,-6.0562193 197.9187,197.9187 0 0 1 -237.54683,186.74142 197.9187,197.9187 0 0 1 -377.94488,123.10623 Z"
       id="Zone5-5-1-1"
       inkscape:connector-curvature="0" />
    <path
       style="fill:none;stroke:none;stroke-width:0.96499997;stroke-miterlimit:4;stroke-dasharray:none;stroke-opacity:1"
       d="m -398.66951,150.37243 a 231.71722,231.71722 0 0 0 327.674097,3.94574 231.71722,231.71722 0 0 0 3.94502,-327.67411 231.71722,231.71722 0 0 0 -327.673737,-3.94536 231.71722,231.71722 0 0 0 -3.94538,327.67373 z m 20.72463,-27.2662 A 197.9187,197.9187 0 0 1 -430.34448,-16.169256 197.9187,197.9187 0 0 1 -227.43378,-208.9669 197.9187,197.9187 0 0 1 -34.636123,-6.0562193 197.9187,197.9187 0 0 1 -237.54683,186.74142 197.9187,197.9187 0 0 1 -377.94488,123.10623 Z"
       id="Zone5-5-1-8"
       inkscape:connector-curvature="0" />
    <clipPath
       clipPathUnits="userSpaceOnUse"
       id="clipPath4728-3">
      <path
         style="fill:none;stroke:#000000;stroke-width:0.26458332px;stroke-linecap:butt;stroke-linejoin:miter;stroke-opacity:1"
         d="m 169.39807,12.910981 -3.28954,156.088339 c 0,0 4.55274,22.08972 28.39942,23.2455 23.84669,1.15575 19.24376,0.43915 19.24376,0.43915 l 25.49535,9.02473 48.7634,-6.12564 10.61122,-7.39478 3.67329,-2.90576 5.98654,-5.81959 2.82104,-10.8408 -0.91268,-23.47193 v -5.53791 l 0.49342,-68.148178 0.21775,-60.174463 3.94944,-5.6420462 2.30222,-5.6206258 53.94391,-20.00922 -19.25045,-60.693459 -113.8288,-13.002157 -142.481301,8.488521 23.051801,71.734585 35.1419,6.448052 9.58268,9.6647555 3.12134,5.172419 z"
         id="path4730-6"
         inkscape:connector-curvature="0"
         sodipodi:nodetypes="ccccccccccccccccccccccccc" />
    </clipPath>
  </defs>
  <sodipodi:namedview
     id="base"
     pagecolor="#ffffff"
     bordercolor="#666666"
     borderopacity="1.0"
     inkscape:pageopacity="0.0"
     inkscape:pageshadow="2"
     inkscape:zoom="0.41451389"
     inkscape:cx="431.83113"
     inkscape:cy="907.08661"
     inkscape:document-units="mm"
     inkscape:current-layer="layer1"
     showgrid="false"
     fit-margin-top="0"
     fit-margin-left="0"
     fit-margin-right="0"
     fit-margin-bottom="0"
     inkscape:window-width="1920"
     inkscape:window-height="1019"
     inkscape:window-x="0"
     inkscape:window-y="30"
     inkscape:window-maximized="1" />
  <metadata
     id="metadata5">
    <rdf:RDF>
      <cc:Work
         rdf:about="">
        <dc:format>image/svg+xml</dc:format>
        <dc:type
           rdf:resource="http://purl.org/dc/dcmitype/StillImage" />
        <dc:title />
      </cc:Work>
    </rdf:RDF>
  </metadata>
  <g
     inkscape:label="Capa 1"
     inkscape:groupmode="layer"
     id="layer1"
     transform="translate(472.85977,251.49157)">
    <circle
       style="fill:#009acf;stroke-width:1.785;fill-opacity:1;stroke-miterlimit:4;stroke-dasharray:none;stroke:#000000;stroke-opacity:1"
       cx="-232.85977"
       cy="-11.491571"
       r="240"
       id="Zone5" />
    <circle
       style="fill:#fd1b14;fill-opacity:1;stroke:#000000;stroke-width:1.785;stroke-miterlimit:4;stroke-dasharray:none"
       cx="-232.85977"
       cy="-11.49157"
       r="177.6075"
       id="Zone6" />
    <circle
       style="fill:#fd1b14;stroke:#000000;stroke-width:0.9066807;stroke-miterlimit:4;stroke-dasharray:none"
       cx="-232.85977"
       cy="-11.49157"
       r="144.16216"
       id="Zone7" />
    <circle
       cx="-232.85977"
       cy="-11.49157"
       r="110.63103"
       id="Zone8"
       style="fill:#fff535;fill-opacity:1;stroke:#000000;stroke-width:0.73792762;stroke-miterlimit:4;stroke-dasharray:none" />
    <circle
       style="fill:#fff535;stroke:#000000;stroke-width:0;stroke-miterlimit:4;stroke-dasharray:none"
       cx="-232.85977"
       cy="-11.491571"
       r="79"
       id="Zone9" />
    <circle
       style="fill:#fff535;stroke:#000000;stroke-width:2.73000145"
       cx="-232.85977"
       cy="-11.49157"
       r="53.235039"
       id="Zone10" />
    <circle
       style="fill:#fff535;stroke:#000000;stroke-width:1"
       cx="-232.85977"
       cy="-11.491571"
       r="18.999998"
       id="Inner10" />
    <path
       style="fill:none;stroke:#000000;stroke-width:0;stroke-linecap:butt;stroke-linejoin:miter;stroke-miterlimit:4;stroke-dasharray:none;stroke-opacity:1"
       d="m -385.36167,-121.89096 153.6304,289.55767 154.647813,-291.13467"
       id="path5052"
       inkscape:connector-curvature="0" />
    <path
       style="opacity:1;fill:none;fill-opacity:1;stroke:none;stroke-width:2.36665654;stroke-linecap:round;stroke-linejoin:round;stroke-miterlimit:4;stroke-dasharray:none;stroke-dashoffset:0;stroke-opacity:1;paint-order:fill markers stroke"
       d="M 251.7413,178.05899 A 228.81666,228.81666 0 0 0 573.95232,148.15445 228.81666,228.81666 0 0 0 544.0482,-174.05626 228.81666,228.81666 0 0 0 221.83748,-144.15212 228.81666,228.81666 0 0 0 251.7413,178.05899 Z M 274.617,150.92343 A 196.14789,190.22315 86.643983 0 1 208.50983,19.91438 196.14789,190.22315 86.643983 0 1 379.84005,-193.30701 196.14789,190.22315 86.643983 0 1 587.27966,-15.91165 196.14789,190.22315 86.643983 0 1 415.94975,197.30934 196.14789,190.22315 86.643983 0 1 274.617,150.92343 Z"
       id="path856-4-2"
       inkscape:connector-curvature="0" />
    <circle
       style="opacity:1;fill:none;fill-opacity:1;stroke:none;stroke-width:0.91753793;stroke-linecap:round;stroke-linejoin:round;stroke-miterlimit:4;stroke-dasharray:none;stroke-dashoffset:0;stroke-opacity:1;paint-order:fill markers stroke"
       id="path5128"
       cx="187.37177"
       cy="-138.73557"
       r="192.83055"
       transform="rotate(-140.65742)" />
    <path
       style="fill:none;stroke:none;stroke-width:0.96499997;stroke-miterlimit:4;stroke-dasharray:none;stroke-opacity:1"
       d="m -398.66951,150.37243 a 231.71722,231.71722 0 0 0 327.674097,3.94574 231.71722,231.71722 0 0 0 3.94502,-327.67411 231.71722,231.71722 0 0 0 -327.673737,-3.94536 231.71722,231.71722 0 0 0 -3.94538,327.67373 z m 20.72463,-27.2662 A 197.9187,197.9187 0 0 1 -430.34448,-16.169256 197.9187,197.9187 0 0 1 -227.43378,-208.9669 197.9187,197.9187 0 0 1 -34.636123,-6.0562193 197.9187,197.9187 0 0 1 -237.54683,186.74142 197.9187,197.9187 0 0 1 -377.94488,123.10623 Z"
       id="Zone5-5-1"
       inkscape:connector-curvature="0" />
    <path
       style="fill:none;fill-opacity:1;stroke:none;stroke-width:0.96499997;stroke-miterlimit:4;stroke-dasharray:none;stroke-opacity:1"
       d="m -414.30379,132.65158 a 231.71722,231.71722 0 0 0 271.7771,69.26298 231.71722,231.71722 0 0 0 123.051023,-303.7175 231.71722,231.71722 0 0 0 -303.717123,-123.05062 231.71722,231.71722 0 0 0 -123.0511,303.717499 231.71722,231.71722 0 0 0 31.9401,53.787641 z m 30.4074,-24.23966 A 192.83055,192.83055 0 0 1 -425.69039,-11.448854 192.83055,192.83055 0 0 1 -232.88005,-204.30015 192.83055,192.83055 0 0 1 -40.029107,-11.490164 192.83055,192.83055 0 0 1 -232.83908,181.3608 192.83055,192.83055 0 0 1 -383.89639,108.41192 Z"
       id="Zone5-5-9"
       inkscape:connector-curvature="0" />
  </g>
</svg>
